<?xml version="1.0" encoding="utf-8"?>
<!-- Generator: Adobe Illustrator 22.0.1, SVG Export Plug-In . SVG Version: 6.00 Build 0)  -->
<svg version="1.1" xmlns="http://www.w3.org/2000/svg" xmlns:xlink="http://www.w3.org/1999/xlink" x="0px" y="0px"
	 viewBox="0 0 10 10" style="enable-background:new 0 0 10 10;" xml:space="preserve">
<style type="text/css">
	.st0{fill:#0D7F2A;}
	.st1{fill:#FF0000;}
</style>
<g id="Capa_2">
	<g>
		<g>
			<path class="st0" d="M5.2,4.8c-1.4,0.5-1.8-0.1-2-1.5C3,2,3.1,0.5,3.2-0.9c-0.6,0.5-1.3,1-1.9,1.4C2.2,0.8,3,1.1,3.9,1.3
				C5.8,1.8,6.6-1,4.7-1.6C3.8-1.8,3-2.1,2.1-2.3c-1-0.2-1.8,0.5-1.9,1.4c-0.1,2-0.2,4.3,0.5,6.2c0.9,2.3,3,3.2,5.4,2.4
				C7.8,7.1,7,4.2,5.2,4.8L5.2,4.8z"/>
		</g>
	</g>
	<g>
		<g>
			<path class="st0" d="M3.4,3.8c0,0.8,0.2,1.1,0.9,1.4C4.5,5.3,4.7,5.2,4.8,5c0.4-0.8,0.8-1.7,0.5-2.6C5,1.5,4.3,1.5,3.5,1.5
				C3.1,1.5,3,2,3.3,2.2C3.6,2.4,3.9,2.7,4.1,3C4.4,3.4,5,3,4.7,2.6c-0.5-0.7-1-1.3-1.5-1.9C3,0.9,2.9,1.1,2.7,1.3
				c0.6,0.3,1.1,0.6,1.6,0.9C4.5,2,4.6,1.8,4.8,1.5c-0.3-0.2-0.7-0.3-1-0.5C3.5,1,3.3,1.1,3.2,1.4C3.2,1.8,3.5,2.2,3.7,2.5
				C3.9,2.3,4,2.1,4.2,1.9C3.8,1.7,3.4,1.4,2.9,1.2C2.6,1.1,2.3,1.6,2.6,1.9c0.6,0.6,1.3,1.3,1.9,1.9C4.6,3.6,4.8,3.4,5,3.2
				C4.4,2.8,3.9,2.4,3.3,2.1C3.2,2.3,3.1,2.6,2.9,2.8c0.7,0.3,1.4,0.6,2,1.1c0.4,0.3,0.8-0.4,0.4-0.6C4.6,2.7,4,2.3,3.2,1.9
				C2.9,1.8,2.5,2.1,2.7,2.4c0.6,0.8,1.4,1.4,2.3,2c0.1-0.2,0.3-0.4,0.4-0.6C4.7,3.4,4,3.1,3.3,2.8C2.9,2.7,2.7,3.3,3,3.5
				c0.6,0.4,1.1,0.8,1.7,1.1c0.4,0.2,0.8-0.4,0.4-0.6C4.6,3.5,3.9,3.2,3.3,3C2.9,2.9,2.6,3.4,2.9,3.6c0.5,0.4,1,0.7,1.5,1
				c0.1-0.2,0.2-0.5,0.3-0.7C4.3,3.8,4,3.6,3.6,3.5C3.2,3.3,3,3.9,3.3,4.2C4,4.6,4.7,4.9,5.5,5.1C6,5.2,6.1,4.5,5.7,4.3
				C5.1,4.1,4.4,3.8,3.8,3.6C3.7,3.8,3.6,4.1,3.6,4.3c0.8,0.2,1.7,0.4,2.5,0.6c0.2,0.1,0.6-0.2,0.5-0.5C6.2,3.6,5.3,3.1,4.6,2.6
				C4.5,2.8,4.4,3,4.3,3.2C4.9,3.4,5.5,3.8,6,4c0.3,0.1,0.6-0.1,0.6-0.4C6.5,3.4,6.5,3.3,6.3,3.1C6,2.7,5.5,3.2,5.8,3.6
				c0,0.1,0,0.1,0.1,0.2C6,3.7,6.2,3.5,6.4,3.4C5.8,3.1,5.2,2.7,4.5,2.5C4.1,2.4,3.9,3,4.2,3.2C4.7,3.6,5.6,4,5.8,4.6
				C6,4.5,6.1,4.3,6.3,4.2C5.4,4,4.6,3.8,3.8,3.6C3.3,3.5,3.1,4.2,3.6,4.3c0.6,0.2,1.3,0.5,1.9,0.7c0.1-0.2,0.1-0.5,0.2-0.7
				C5,4.2,4.3,4,3.7,3.5C3.6,3.8,3.5,4,3.4,4.2c0.4,0.1,0.7,0.3,1.1,0.4C4.9,4.8,5.2,4.2,4.8,4c-0.5-0.3-1-0.5-1.4-0.9
				C3.3,3.3,3.2,3.5,3.1,3.7c0.6,0.2,1.2,0.5,1.7,0.9C4.9,4.4,5,4.1,5.1,3.9C4.5,3.6,4,3.3,3.4,2.9C3.3,3.1,3.2,3.3,3.1,3.5
				C3.8,3.8,4.4,4.1,5,4.5c0.4,0.3,0.8-0.4,0.4-0.6c-0.7-0.5-1.4-1.1-2-1.8C3.2,2.2,3,2.4,2.9,2.6c0.7,0.4,1.4,0.8,2.1,1.3
				c0.1-0.2,0.3-0.4,0.4-0.6C4.7,2.8,4,2.4,3.3,2.1C2.9,1.9,2.5,2.5,2.9,2.8c0.5,0.3,1,0.6,1.5,1C4.8,4.1,5.3,3.6,5,3.2
				C4.4,2.6,3.7,2,3.1,1.3C3,1.6,2.9,1.8,2.7,2c0.4,0.2,0.8,0.4,1.1,0.6c0.3,0.2,0.7-0.2,0.5-0.5C4.3,1.9,4,1.6,4,1.4
				C3.8,1.5,3.6,1.6,3.4,1.7c0.3,0.1,0.7,0.3,1,0.5c0.4,0.2,0.8-0.4,0.4-0.6C4.2,1.2,3.7,0.9,3.1,0.7C2.7,0.5,2.4,0.9,2.7,1.3
				c0.5,0.6,1,1.1,1.4,1.7c0.2-0.1,0.4-0.3,0.6-0.4C4.4,2.2,4.1,1.9,3.7,1.5C3.6,1.8,3.5,2,3.5,2.2c0.7,0,1.2,0.2,1.2,0.9
				c0,0.5-0.2,1-0.5,1.5c0.2,0,0.3-0.1,0.5-0.1C4.2,4.3,4.2,4.3,4.1,3.8C4.1,3.3,3.4,3.3,3.4,3.8L3.4,3.8z"/>
		</g>
	</g>
	<g>
		<g>
			<path class="st0" d="M6.2,2.5c-0.5-0.4-1-0.7-1.5-1.1C4.6,1.7,4.5,1.9,4.5,2.1c0.6,0.2,1.2,0.4,1.8,0.6c0.3,0.1,0.6-0.3,0.4-0.6
				C6.3,1.7,5.6,1.4,5.1,1C5,1.3,5,1.5,4.9,1.7c0.7,0,1.5,0.4,2.1,0.6c0.4,0.1,0.7-0.5,0.3-0.7C6.5,1.2,5.6,0.9,4.7,0.5
				c0,0.2-0.1,0.5-0.1,0.7c1-0.1,2.1,0.4,3,0.6C8,2,8.2,1.4,7.9,1.2C7.4,0.9,7,0.7,6.5,0.5C6.4,0.7,6.3,0.9,6.2,1.1
				c0.4,0.2,0.8,0.4,1.2,0.7c0.1-0.2,0.3-0.4,0.4-0.6c-0.7-0.4-1.5-0.8-2.3-1C5.1,0,4.9,0.7,5.3,0.9c0.7,0.2,1.4,0.6,2.1,0.9
				c0.4,0.2,0.8-0.4,0.4-0.6C7.4,0.9,6.9,0.6,6.4,0.4C6,0.3,5.8,0.9,6.1,1.1c0.5,0.2,0.9,0.5,1.4,0.8c0.1-0.2,0.2-0.5,0.3-0.7
				c-1-0.3-2.1-0.7-3.2-0.7c-0.4,0-0.5,0.6-0.1,0.7c0.8,0.3,1.7,0.6,2.4,1C7,2.1,7.1,1.8,7.2,1.6C6.5,1.4,5.7,1,4.9,1
				C4.5,1,4.4,1.5,4.7,1.7C5.1,1.9,5.8,2.2,6,2.5C6.2,2.4,6.3,2.2,6.5,2C5.9,1.8,5.3,1.6,4.7,1.4C4.2,1.3,4,1.9,4.4,2.1
				c0.5,0.4,1,0.7,1.5,1.1C6.3,3.5,6.6,2.8,6.2,2.5L6.2,2.5z"/>
		</g>
	</g>
	<g>
		<g>
			<path class="st0" d="M6.4-1.3c-0.4,0-0.8,0-1.1,0c0,0.2,0,0.5,0,0.8c1,0,2,0.2,3,0.2c0.6,0,0-0.8,0.4,0C8.9,0,8.8,0.6,8.8,1
				C9,3.1,9.6,6,6.9,6.5C7,6.7,7.1,6.9,7.3,7.2C7.8,6.6,8.3,6.2,9,5.9C9.4,5.7,9.1,5,8.7,5.2C8.1,5.4,7.6,5.6,7,5.9
				c0.1,0.2,0.2,0.5,0.3,0.7C7.9,6.2,8.5,6,9.2,5.8C9.6,5.7,9.4,5,9,5.1C8.2,5.2,7.5,5.4,6.7,5.5C6.9,5.7,7,5.9,7.1,6.1
				C7.5,5.8,8,5.6,8.5,5.5C8.4,5.2,8.4,5,8.3,4.7c-0.7,0.2-1.3,0.4-2,0.6C6.3,5.5,6.4,5.8,6.5,6c1-0.4,2-0.5,3-0.6
				c0.5,0,0.5-0.7,0-0.8c-0.8,0-1.6,0-2.4,0.1c0.1,0.2,0.2,0.4,0.3,0.6c0.3-0.3,1.1-0.3,1.4-0.3c0.5,0,0.5-0.8,0-0.8
				c-0.8,0-1.6,0.1-2.4,0.2c0,0.2,0.1,0.5,0.1,0.7c0.8-0.3,1.6-0.5,2.5-0.6c0.5,0,0.5-0.8,0-0.8C8.2,4,7.5,4,6.8,4.1
				c0.1,0.1,0.2,0.2,0.4,0.4c0,0,0-0.1,0-0.1C7.2,4.2,7.1,4,6.9,4C6.3,3.8,5.5,3.9,4.8,3.8c0,0.2,0,0.5,0,0.8
				c0.9-0.1,1.8-0.2,2.8-0.1c0.4,0,0.5-0.5,0.2-0.7c-0.3-0.2-1.3-0.7-1.5-1C6.2,2.9,6.1,3.1,5.9,3.2c1,0.1,1.9,0.8,2.6,1.4
				c0.3,0.2,0.7-0.2,0.5-0.5C8.6,3.5,8.2,3,7.6,2.5C7.4,2.7,7.3,2.9,7.1,3.1c0.5,0.4,1,0.7,1.6,0.9c0.4,0.2,0.8-0.3,0.5-0.6
				c-1-0.8-2-1.3-3.2-1.7C5.6,1.6,5.4,2.3,5.8,2.5c1.2,0.5,2.3,1,3.3,1.7C9.4,4.3,9.9,4,9.6,3.6C9.1,2.8,8.1,2.3,7.2,1.8
				C7.1,2,7,2.3,6.9,2.5C7.5,2.6,8,2.8,8.6,3C9,3.2,9.2,2.6,8.9,2.4C8.3,2,7.7,1.7,7.1,1.4C7,1.6,7,1.9,6.9,2.1
				c0.5,0.2,1,0.3,1.4,0.6c0.4,0.2,0.8-0.3,0.5-0.6C8.2,1.6,7.6,1.2,6.9,0.8C6.8,1.1,6.7,1.3,6.6,1.5C7.6,1.7,8.4,2,9.3,2.3
				c0.1-0.2,0.1-0.5,0.2-0.7c-0.7-0.3-1.3-0.7-2-1.1C7.2,0.4,6.1,0.3,6.5-0.1c0.1-0.1,1.3,0.2,1.5,0.2c0.2,0,0.4-0.2,0.4-0.4
				c0-0.2,0-0.4,0-0.6c-0.2,0-0.4,0-0.5,0c0.8,0.8,0.9,2.5,0.8,3.5c0.2,0,0.5-0.1,0.7-0.1C9.1,1.8,9.1,0.3,8.4-0.3
				C7.9-0.7,6.9-0.3,6.2-0.6C5.8-0.7,5.6-0.2,5.8,0C6.5,0.7,7.2,0.6,8,1c0.4,0.2,0.8-0.4,0.4-0.6C7.8,0,6.9,0,6.4-0.5
				C6.3-0.3,6.1-0.1,6,0.1c0.6,0.2,1.1,0,1.7,0.2c0.6,0.2,0.7,1.8,0.9,2.4C8.7,3.2,9.3,3,9.3,2.6c0.1-1.3,0-3.1-1-4
				c-0.2-0.1-0.4-0.1-0.5,0C7.4-1,7.5-0.8,7.5-0.3c0.1-0.1,0.2-0.2,0.4-0.4c-0.6-0.1-3-0.6-2.5,0.8C5.6,0.8,6.5,1,7,1.2
				C7.8,1.6,8.5,2,9.3,2.3c0.5,0.2,0.6-0.5,0.2-0.7C8.6,1.3,7.8,1,6.8,0.8C6.4,0.7,6.2,1.3,6.5,1.5c0.6,0.3,1.1,0.6,1.7,1.1
				C8.4,2.4,8.5,2.2,8.7,2C8.1,1.8,7.6,1.6,7.1,1.4C6.7,1.2,6.4,1.9,6.8,2.1C7.4,2.4,7.9,2.7,8.5,3c0.1-0.2,0.2-0.5,0.3-0.7
				C8.2,2.1,7.7,1.9,7.1,1.8C6.7,1.7,6.4,2.3,6.8,2.5C7.6,2.8,8.5,3.3,9,4c0.2-0.2,0.3-0.3,0.5-0.5C8.4,2.8,7.2,2.2,6,1.8
				C5.9,2,5.9,2.2,5.8,2.5c1,0.4,2,0.8,2.8,1.5c0.2-0.2,0.3-0.4,0.5-0.6C8.5,3.1,8,2.8,7.5,2.5C7.2,2.2,6.7,2.8,7,3.1
				c0.6,0.4,1,0.8,1.4,1.4C8.6,4.3,8.8,4.1,9,4C8,3.3,7.1,2.6,5.9,2.5c-0.2,0-0.4,0.3-0.4,0.5C5.9,3.7,6.8,4,7.4,4.4
				c0.1-0.2,0.1-0.5,0.2-0.7c-0.9,0-1.8,0-2.8,0.1c-0.5,0.1-0.5,0.7,0,0.8c0.1,0,1.6,0.2,1.6-0.1c0,0.2,0.2,0.4,0.4,0.4
				c0.7-0.1,1.4-0.1,2.1-0.1c0-0.2,0-0.5,0-0.8C8,4,7.1,4.2,6.2,4.5C5.9,4.7,5.9,5.3,6.3,5.3c0.8-0.1,1.6-0.2,2.4-0.2
				c0-0.2,0-0.5,0-0.8c-0.7,0.1-1.4,0-1.9,0.5C6.6,5.1,6.7,5.5,7.1,5.5c0.8-0.1,1.6-0.1,2.4-0.1c0-0.2,0-0.5,0-0.8
				C8.4,4.8,7.3,4.9,6.3,5.3C5.8,5.5,6,6.1,6.5,6c0.7-0.2,1.3-0.4,2-0.6c0.5-0.1,0.3-0.9-0.2-0.7C7.6,4.9,7.1,5.1,6.6,5.6
				c-0.3,0.3,0,0.7,0.4,0.6C7.7,6.1,8.4,6,9.2,5.8C9.1,5.6,9,5.4,9,5.1C8.2,5.3,7.6,5.5,6.9,5.9C6.5,6.1,6.8,6.7,7.2,6.6
				c0.6-0.2,1.2-0.5,1.7-0.7C8.8,5.7,8.7,5.5,8.6,5.2C7.9,5.6,7.3,6,6.7,6.6c-0.2,0.3,0,0.7,0.4,0.6c1.7-0.3,2.4-1.1,2.6-2.9
				c0.1-1,0-2.1-0.1-3.1C9.5,0.6,9.6-0.3,9.3-1C9.3-1.2,9.2-1.3,9-1.3c-0.7,0-1.2,0.2-1.9,0.1C6.5-1.3,5.9-1.3,5.3-1.3
				c-0.5,0-0.5,0.7,0,0.8c0.4,0,0.8,0,1.1,0C6.9-0.5,6.9-1.2,6.4-1.3L6.4-1.3z"/>
		</g>
	</g>
</g>
<g id="Capa_1">
	<g>
		<g>
			<path d="M9.2-1.3c0.1,1.7,0.4,3.5,0.2,5.2C9.2,6.4,7.2,7.2,4.9,7.4C2.6,7.5,0.8,6.7,0.4,4.2C0.1,2.5,0.3,0.7,0.3-1
				c0-0.5-0.7-0.5-0.8,0c0,1.6,0,3.2,0.1,4.8c0,0.8,0,1.7,0.4,2.3c1.3,2,3.1,2.1,5.2,1.9C7.2,8,8.5,7.7,9.7,6
				c0.5-0.6,0.4-1.3,0.5-2.1c0-1.7-0.1-3.5-0.2-5.2C9.9-1.8,9.2-1.8,9.2-1.3L9.2-1.3z"/>
		</g>
	</g>
	<g>
		<g>
			<path d="M2.6,3.2c0.5,0,0.5-0.8,0-0.8C2.1,2.5,2.1,3.2,2.6,3.2L2.6,3.2z"/>
		</g>
	</g>
	<g>
		<g>
			<path class="st1" d="M4.4,8.1c0,0.3,0,0.6,0.1,0.8c0.1,0.5,0.8,0.3,0.7-0.2c0-0.2,0-0.4,0-0.6C5.2,7.6,4.4,7.6,4.4,8.1L4.4,8.1z"
				/>
		</g>
	</g>
	<g>
		<g>
			<path class="st1" d="M5.2,9.4c0.5,0,0.5-0.8,0-0.8C4.7,8.6,4.7,9.4,5.2,9.4L5.2,9.4z"/>
		</g>
	</g>
	<g>
		<g>
			<path class="st1" d="M4.6,9.4c0.5,0,0.5-0.8,0-0.8C4.1,8.6,4.1,9.4,4.6,9.4L4.6,9.4z"/>
		</g>
	</g>
	<g>
		<g>
			<path class="st0" d="M7.2,3.4c0.5,0,0.5-0.8,0-0.8C6.7,2.6,6.7,3.4,7.2,3.4L7.2,3.4z"/>
		</g>
	</g>
	<g>
		<g>
			<path class="st0" d="M7.2,3.4c0.5,0,0.5-0.8,0-0.8C6.7,2.6,6.7,3.4,7.2,3.4L7.2,3.4z"/>
		</g>
	</g>
	<g>
		<g>
			<path class="st0" d="M7.2,3.4c0.5,0,0.5-0.8,0-0.8C6.7,2.6,6.7,3.4,7.2,3.4L7.2,3.4z"/>
		</g>
	</g>
	<g>
		<g>
			<path class="st0" d="M7.8,3.2c0.5,0,0.5-0.8,0-0.8C7.3,2.4,7.3,3.2,7.8,3.2L7.8,3.2z"/>
		</g>
	</g>
	<g>
		<g>
			<path d="M7.7,3.6c0.5,0,0.5-0.8,0-0.8C7.2,2.9,7.2,3.6,7.7,3.6L7.7,3.6z"/>
		</g>
	</g>
</g>
</svg>
