<?xml version="1.0" encoding="utf-8"?>
<!-- Generator: Adobe Illustrator 22.0.1, SVG Export Plug-In . SVG Version: 6.00 Build 0)  -->
<svg version="1.1" xmlns="http://www.w3.org/2000/svg" xmlns:xlink="http://www.w3.org/1999/xlink" x="0px" y="0px"
	 viewBox="0 0 10 10" style="enable-background:new 0 0 10 10;" xml:space="preserve">
<style type="text/css">
	.st0{fill:#0D7F2A;}
	.st1{fill:#FF0000;}
</style>
<g id="Capa_2">
	<g>
		<g>
			<path class="st0" d="M4.7,5c1.4-0.4,1.7,0.2,1.9,1.5c0.2,1.4,0,2.9-0.1,4.3c0.6-0.5,1.3-1,1.9-1.4C7.5,9.1,6.6,8.8,5.7,8.6
				c-1.8-0.6-2.6,2.3-0.8,2.9c0.9,0.3,1.7,0.6,2.6,0.8c1,0.3,1.8-0.5,1.9-1.4c0.2-2,0.4-4.3-0.2-6.3c-0.8-2.4-3-3.2-5.3-2.5
				C2.1,2.7,2.9,5.6,4.7,5L4.7,5z"/>
		</g>
	</g>
	<g>
		<g>
			<path class="st0" d="M6.4,6.1c0-0.8-0.1-1.1-0.8-1.4c-0.2-0.1-0.4,0-0.5,0.1C4.6,5.6,4.2,6.6,4.5,7.5c0.3,0.9,0.9,0.9,1.7,0.9
				c0.3,0,0.5-0.4,0.3-0.6C6.2,7.5,6,7.2,5.7,6.9c-0.3-0.4-0.9,0-0.6,0.4C5.5,7.9,6,8.6,6.5,9.2C6.7,9,6.8,8.8,7,8.6
				C6.4,8.3,5.9,8,5.4,7.7C5.2,7.9,5.1,8.1,5,8.3c0.3,0.2,0.6,0.3,1,0.5c0.2,0.1,0.5,0,0.6-0.2c0.1-0.4-0.2-0.8-0.4-1.2
				C5.9,7.6,5.7,7.7,5.5,7.9c0.4,0.3,0.8,0.6,1.2,0.8c0.4,0.2,0.8-0.3,0.5-0.6C6.6,7.4,6,6.7,5.4,6.1C5.2,6.2,5,6.4,4.9,6.6
				c0.5,0.4,1,0.9,1.6,1.2c0.1-0.2,0.3-0.4,0.4-0.6C6.2,6.8,5.5,6.4,4.9,6C4.5,5.7,4.1,6.4,4.5,6.6c0.7,0.5,1.3,1,2,1.4
				C6.8,8.2,7.3,7.8,7,7.5C6.5,6.7,5.7,6,4.9,5.4C4.8,5.6,4.6,5.8,4.5,6c0.6,0.4,1.3,0.8,2,1.1c0.3,0.1,0.7-0.4,0.4-0.6
				C6.3,6,5.7,5.6,5.1,5.3C4.8,5.1,4.3,5.6,4.7,5.8c0.6,0.5,1.2,0.8,1.9,1.1c0.4,0.1,0.6-0.4,0.4-0.6C6.5,5.9,6,5.6,5.4,5.2
				C5.3,5.5,5.2,5.7,5.1,5.9C5.4,6,5.8,6.2,6.1,6.4C6.5,6.5,7,6.1,6.6,5.8C5.9,5.3,5.2,5,4.4,4.7C4,4.6,3.7,5.3,4.1,5.4
				C4.7,5.7,5.4,6,6,6.3C6.1,6,6.2,5.8,6.3,5.6C5.4,5.4,4.6,5.1,3.8,4.9C3.6,4.8,3.2,5.1,3.3,5.4c0.3,0.8,1.1,1.3,1.8,1.9
				C5.2,7,5.4,6.8,5.5,6.6C4.9,6.5,4.3,6,3.8,5.8C3.5,5.6,3.2,5.9,3.3,6.2c0,0.2,0,0.3,0.2,0.4c0.3,0.4,0.9,0,0.6-0.4
				C4.1,6.2,4,6.1,4,6C3.8,6.1,3.6,6.3,3.4,6.4C4,6.7,4.6,7.2,5.3,7.3C5.6,7.4,5.9,7,5.6,6.7C5.1,6.3,4.3,5.8,4.1,5.2
				C3.9,5.3,3.8,5.5,3.6,5.6c0.8,0.2,1.6,0.4,2.5,0.7c0.4,0.1,0.7-0.5,0.3-0.7C5.7,5.3,5.1,5.1,4.5,4.8C4.4,5,4.3,5.2,4.2,5.5
				c0.7,0.2,1.3,0.4,1.9,0.9c0.2-0.2,0.3-0.4,0.5-0.6C6.2,5.6,5.8,5.4,5.4,5.2C5,5,4.6,5.6,5.1,5.9c0.5,0.3,0.9,0.6,1.3,1
				c0.1-0.2,0.2-0.4,0.4-0.6C6.2,6,5.7,5.7,5.2,5.3C5,5.5,4.9,5.7,4.7,5.9C5.3,6.2,5.8,6.6,6.3,7c0.1-0.2,0.2-0.4,0.4-0.6
				C6,6.1,5.5,5.7,4.9,5.3C4.5,5.1,4.1,5.7,4.4,5.9c0.7,0.6,1.4,1.2,2,1.9c0.2-0.2,0.3-0.3,0.5-0.5C6.2,6.9,5.5,6.5,4.9,6
				C4.8,6.2,4.6,6.4,4.5,6.6c0.6,0.4,1.3,0.8,1.9,1.1C6.9,8,7.3,7.4,6.8,7.1c-0.5-0.3-1-0.7-1.5-1.1C5,5.8,4.5,6.2,4.9,6.6
				c0.6,0.7,1.2,1.3,1.8,2C6.8,8.4,6.9,8.2,7.1,8C6.7,7.8,6.4,7.6,6,7.3C5.7,7.1,5.2,7.4,5.4,7.8c0,0.1,0.4,0.5,0.4,0.6
				C6,8.3,6.1,8.2,6.3,8.2C6,8,5.7,7.8,5.4,7.7C4.9,7.4,4.6,8,5,8.3C5.5,8.7,6,9,6.6,9.3C7,9.5,7.3,9,7,8.7C6.6,8.1,6.1,7.5,5.7,6.9
				C5.5,7,5.3,7.1,5.1,7.3c0.3,0.4,0.6,0.7,1,1c0.1-0.2,0.2-0.4,0.3-0.6c-0.7,0-1.2-0.4-1.1-1.1C5.2,6,5.5,5.6,5.7,5.2
				c-0.2,0-0.3,0.1-0.5,0.1c0.5,0.2,0.5,0.2,0.5,0.8C5.7,6.6,6.4,6.6,6.4,6.1L6.4,6.1z"/>
		</g>
	</g>
	<g>
		<g>
			<path class="st0" d="M3.5,7.2C4,7.6,4.5,8,4.9,8.3c0.1-0.2,0.2-0.4,0.4-0.6C4.7,7.5,4.1,7.3,3.5,7.1C3.2,6.9,2.9,7.3,3.1,7.6
				c0.3,0.5,1,0.9,1.5,1.2c0.1-0.2,0.1-0.5,0.2-0.7C4.1,8,3.4,7.7,2.7,7.4C2.3,7.2,2.1,7.9,2.4,8.1C3.3,8.6,4.1,8.9,5,9.3
				c0-0.2,0.1-0.5,0.1-0.7c-1,0-2-0.5-2.9-0.8C1.7,7.7,1.6,8.3,1.9,8.5c0.4,0.3,0.9,0.6,1.3,0.8c0.1-0.2,0.3-0.4,0.4-0.6
				C3.1,8.5,2.7,8.2,2.3,7.9C2.2,8.1,2,8.3,1.9,8.6C2.6,9,3.4,9.4,4.2,9.7c0.5,0.2,0.6-0.5,0.2-0.7C3.6,8.7,3,8.3,2.3,7.9
				C1.9,7.6,1.5,8.3,1.9,8.6c0.4,0.3,0.8,0.6,1.3,0.8C3.6,9.5,4,8.9,3.6,8.7C3.1,8.4,2.7,8.2,2.3,7.9C2.2,8.1,2.1,8.3,2,8.5
				c1,0.3,2.1,0.8,3.1,0.8c0.4,0,0.5-0.6,0.1-0.7C4.4,8.3,3.6,7.9,2.8,7.4C2.7,7.7,2.6,7.9,2.5,8.1C3.2,8.4,4,8.8,4.8,8.8
				c0.4,0,0.5-0.5,0.2-0.7C4.7,7.9,4,7.6,3.7,7.2C3.6,7.4,3.5,7.6,3.3,7.8C3.9,8,4.5,8.2,5.1,8.4C5.4,8.6,5.8,8,5.5,7.8
				C5,7.4,4.5,7.1,4,6.7C3.6,6.4,3.1,6.9,3.5,7.2L3.5,7.2z"/>
		</g>
	</g>
	<g>
		<g>
			<path class="st0" d="M3.2,11c0.4,0,0.8,0.1,1.1,0.1c0-0.2,0-0.5,0-0.8c-0.7,0-1.3-0.2-2-0.3c0.1,0-1.3-0.2-1-0.1
				C1,9.9,1.1,10.2,0.9,9.8c-0.1-0.3,0-0.9,0-1.2c-0.1-2.1-0.5-5,2.2-5.4C3,3,2.8,2.8,2.7,2.6C2.2,3.2,1.6,3.5,0.9,3.8
				C0.5,4,0.8,4.6,1.2,4.5C1.8,4.3,2.4,4.1,3,3.9C2.9,3.7,2.8,3.4,2.7,3.2C2,3.5,1.5,3.7,0.8,3.8C0.3,3.9,0.5,4.6,1,4.6
				c0.7-0.1,1.5-0.2,2.2-0.3C3.1,4,3,3.8,2.8,3.6C2.4,4,1.9,4.2,1.4,4.2C1.5,4.5,1.5,4.7,1.6,5c0.7-0.2,1.4-0.3,2-0.5
				C3.6,4.3,3.5,4,3.5,3.8c-1,0.3-2,0.4-3,0.4C0,4.2,0,4.9,0.4,5C1.2,5,2,5,2.8,5C2.7,4.8,2.7,4.6,2.6,4.4c-0.3,0.3-1,0.2-1.4,0.2
				c-0.5,0-0.5,0.7,0,0.8c0.8,0,1.6,0,2.4-0.1c0-0.2-0.1-0.5-0.1-0.7C2.6,4.8,1.8,4.9,0.9,5c-0.5,0-0.5,0.7,0,0.8c0.7,0,1.4,0,2.1,0
				C2.9,5.5,2.8,5.4,2.7,5.3c0,0,0,0.1,0,0.1c0,0.2,0.1,0.3,0.3,0.4C3.6,6,4.4,6,5,6c0-0.2,0-0.5,0-0.8c-0.9,0.1-1.8,0.1-2.8,0
				C1.9,5.2,1.8,5.8,2.1,6c0.4,0.2,1.2,0.7,1.4,1.1C3.6,6.9,3.8,6.8,4,6.6C3,6.4,2.1,5.8,1.4,5.1C1.1,4.9,0.5,5.2,0.8,5.6
				c0.4,0.6,0.9,1.1,1.5,1.6C2.4,7,2.5,6.8,2.7,6.6c-0.5-0.4-1-0.7-1.6-1C0.8,5.4,0.3,5.9,0.7,6.2C1.6,7,2.6,7.5,3.7,8
				C4.1,8.2,4.5,7.6,4,7.4C2.9,6.8,1.8,6.2,0.7,5.5C0.4,5.3,0,5.7,0.2,6c0.5,0.9,1.5,1.4,2.4,1.9c0.1-0.2,0.2-0.5,0.3-0.7
				C2.3,7.1,1.8,6.9,1.3,6.7C0.9,6.5,0.5,7.1,0.9,7.3C1.5,7.7,2,8,2.6,8.3c0.1-0.2,0.2-0.5,0.3-0.7C2.4,7.5,2,7.3,1.5,7
				C1.1,6.8,0.7,7.3,1,7.6c0.5,0.5,1.1,0.9,1.8,1.3C2.9,8.7,3,8.5,3.1,8.2C2.2,8,1.4,7.7,0.6,7.3C0.4,7.6,0.3,7.8,0.2,8
				c0.7,0.3,1.2,0.8,1.9,1.1c0,0,1.2,0.4,1.1,0.5c-0.1,0.4-1.2,0-1.4,0c-0.2,0-0.5,0.1-0.5,0.4c0,0.2,0,0.4-0.1,0.6
				c0.2,0,0.4,0,0.5,0C1,9.8,1.1,8,1.2,7C1,7.1,0.7,7.1,0.5,7.1C0.6,7.9,0.6,9.4,1.3,10c0.5,0.5,1.5,0.1,2.1,0.4
				c0.4,0.2,0.7-0.3,0.5-0.6C3.2,9.1,2.4,9.1,1.7,8.7C1.3,8.4,0.9,9.1,1.3,9.3c0.6,0.4,1.5,0.4,2,1c0.2-0.2,0.3-0.4,0.5-0.6
				C3.2,9.5,2.7,9.6,2.2,9.4c-0.9-0.3-0.8-1.7-1-2.5C1.1,6.5,0.5,6.6,0.5,7c-0.2,1.3-0.2,3.1,0.8,4.1c0.1,0.1,0.4,0.1,0.5,0
				c0.4-0.3,0.3-0.6,0.3-1.1c-0.2,0.1-0.3,0.2-0.5,0.4c0.6,0.1,2.9,0.8,2.7-0.6c-0.1-0.6-1-0.9-1.5-1.1C2,8.2,1.4,7.7,0.6,7.3
				C0.1,7.1-0.2,7.8,0.2,8C1.1,8.4,2,8.7,2.9,9c0.4,0.1,0.7-0.5,0.3-0.7C2.6,7.9,2.1,7.6,1.6,7.1C1.4,7.3,1.3,7.5,1.1,7.7
				c0.5,0.3,1,0.5,1.6,0.7C3.1,8.5,3.4,7.9,3,7.7C2.4,7.4,1.9,7,1.3,6.7C1.2,6.9,1,7.1,0.9,7.3C1.5,7.6,2.1,7.8,2.7,8
				C3.1,8.1,3.3,7.5,3,7.3C2.2,6.9,1.3,6.4,0.8,5.6C0.7,5.8,0.5,6,0.3,6.1C1.4,6.9,2.5,7.5,3.7,8C3.8,7.8,3.9,7.6,4,7.4
				C3,6.9,2,6.4,1.2,5.7C1,5.9,0.9,6.1,0.7,6.3c0.5,0.3,1.1,0.6,1.6,1C2.6,7.5,3.1,7,2.8,6.7C2.2,6.2,1.8,5.8,1.4,5.2
				C1.2,5.4,1,5.5,0.8,5.7c0.9,0.7,1.8,1.5,2.9,1.7c0.3,0,0.6-0.2,0.5-0.5C3.9,6.2,3.1,5.7,2.5,5.3C2.4,5.6,2.3,5.8,2.3,6
				C3.2,6.1,4.1,6.1,5,6c0.5,0,0.5-0.7,0-0.8C5,5.3,3.4,5,3.4,5.3c0-0.2-0.2-0.4-0.4-0.4C2.3,5,1.6,5,0.9,5c0,0.2,0,0.5,0,0.8
				c1,0,1.8-0.1,2.7-0.5C4,5.1,4,4.5,3.6,4.5C2.8,4.6,2,4.6,1.2,4.6c0,0.2,0,0.5,0,0.8c0.7,0,1.4,0,1.9-0.4c0.2-0.2,0-0.7-0.3-0.6
				c-0.8,0-1.6,0-2.4,0c0,0.2,0,0.5,0,0.8c1.1,0,2.2-0.1,3.2-0.5c0.5-0.2,0.3-0.8-0.2-0.7c-0.7,0.2-1.4,0.3-2,0.5
				C0.9,4.3,1.1,5.1,1.6,5c0.7-0.2,1.2-0.3,1.8-0.8c0.3-0.3,0-0.7-0.4-0.6C2.3,3.6,1.5,3.7,0.8,3.8C0.8,4.1,0.9,4.3,1,4.6
				c0.7-0.1,1.4-0.4,2.1-0.7C3.4,3.7,3.2,3,2.8,3.2C2.2,3.4,1.6,3.6,1,3.8C1.1,4,1.2,4.2,1.3,4.4C2,4.1,2.7,3.7,3.2,3.1
				c0.3-0.3,0-0.7-0.4-0.6C1.2,2.8,0.4,3.6,0.2,5.3c-0.2,1,0,2.1,0,3.1c0,0.7-0.1,1.6,0.2,2.3C0.3,10.8,0.5,11,0.7,11
				c0.6,0,1.2-0.1,1.9,0c0.6,0.1,1.2,0.2,1.8,0.2c0.5,0,0.5-0.7,0-0.8c-0.4,0-0.8-0.1-1.1-0.1C2.8,10.2,2.8,11,3.2,11L3.2,11z"/>
		</g>
	</g>
</g>
<g id="Capa_1">
	<g>
		<g>
			<path d="M0.4,10.9c-0.1-1.7-0.2-3.5,0-5.2c0.3-2.3,2-3.2,4.3-3.3c2.2,0,4.3,0.5,4.7,3c0.2,1.8,0,3.7-0.1,5.5c0,0.5,0.7,0.5,0.8,0
				c0.1-1.6,0.1-3.2,0.1-4.8c0-0.8,0.1-1.7-0.3-2.4C8.6,1.8,6.9,1.7,4.8,1.7c-1.9,0-3.6,0.4-4.7,2.1c-0.4,0.6-0.3,1.3-0.4,1.9
				c-0.1,1.7-0.1,3.5,0,5.2C-0.3,11.4,0.4,11.4,0.4,10.9L0.4,10.9z"/>
		</g>
	</g>
	<g>
		<g>
			<path d="M7.2,7.5c0.5,0,0.5-0.8,0-0.8C6.7,6.7,6.7,7.5,7.2,7.5L7.2,7.5z"/>
		</g>
	</g>
	<g>
		<g>
			<path class="st1" d="M5.6,1.7c0-0.2,0-0.5,0-0.7c0-0.5-0.8-0.5-0.8,0c0,0.2,0,0.5,0,0.7C4.8,2.2,5.6,2.2,5.6,1.7L5.6,1.7z"/>
		</g>
	</g>
	<g>
		<g>
			<path class="st1" d="M4.9,1.2c0.5,0,0.5-0.8,0-0.8C4.4,0.5,4.4,1.2,4.9,1.2L4.9,1.2z"/>
		</g>
	</g>
	<g>
		<g>
			<path class="st1" d="M5.5,1.2c0.5,0,0.5-0.8,0-0.8C5,0.5,5,1.2,5.5,1.2L5.5,1.2z"/>
		</g>
	</g>
	<g>
		<g>
			<path class="st0" d="M2.6,7.1c0.5,0,0.5-0.8,0-0.8C2.1,6.4,2.1,7.1,2.6,7.1L2.6,7.1z"/>
		</g>
	</g>
	<g>
		<g>
			<path class="st0" d="M2.6,7.1c0.5,0,0.5-0.8,0-0.8C2.1,6.4,2.1,7.1,2.6,7.1L2.6,7.1z"/>
		</g>
	</g>
	<g>
		<g>
			<path class="st0" d="M2.6,7.1c0.5,0,0.5-0.8,0-0.8C2.1,6.4,2.1,7.1,2.6,7.1L2.6,7.1z"/>
		</g>
	</g>
	<g>
		<g>
			<path class="st0" d="M2,7.3c0.5,0,0.5-0.8,0-0.8C1.5,6.5,1.5,7.3,2,7.3L2,7.3z"/>
		</g>
	</g>
	<g>
		<g>
			<path d="M2.2,6.8c0.5,0,0.5-0.8,0-0.8C1.7,6.1,1.7,6.8,2.2,6.8L2.2,6.8z"/>
		</g>
	</g>
</g>
</svg>
