<?xml version="1.0" encoding="utf-8"?>
<!-- Generator: Adobe Illustrator 22.0.1, SVG Export Plug-In . SVG Version: 6.00 Build 0)  -->
<svg version="1.1" xmlns="http://www.w3.org/2000/svg" xmlns:xlink="http://www.w3.org/1999/xlink" x="0px" y="0px"
	 viewBox="0 0 10 10" style="enable-background:new 0 0 10 10;" xml:space="preserve">
<style type="text/css">
	.st0{fill:#FF0000;}
</style>
<g id="Capa_1">
	<g id="Capa_2_1_">
		<g>
			<g>
				<path class="st0" d="M3.6,1.3C3.4,1.3,3,1.2,2.7,1.1c0,0.2,0,0.5,0,0.6c0.9-0.2,2,0.6,2.4,1.3c0.1,0.2,0.4,0.2,0.6,0.1
					C6,2.8,6.1,2.6,6.3,2.3C6.4,2.1,6.7,1.6,7,1.6c0.6,0,1.1,1.2,1.2,1.8C8.2,5.1,7,6,5.8,7C5.7,7.1,5.7,7.3,5.7,7.4
					c0.7,1.4,2.7-1.8,2.9-2.2C8.7,4.8,8.2,4.4,8,4.8c-0.5,1-1.1,2.8-2.5,2.9C4.1,7.7,3.5,6.2,2.8,5.4C2.6,5.2,2.2,5.3,2.2,5.5
					C2.1,6,2.3,6,2.4,6.4C2.6,6.3,2.8,6.3,3,6.2C2.2,5.4,1.4,4.6,1.4,3.4C1.5,2.6,2,2.1,2.6,1.9c0.7-0.2,1,0,1.6,0.6
					c0.6,0.6,0.9,1.1,0.7,2.1C4.8,4.9,4.7,5.1,4.7,5.5c-0.1,0.6-0.3,1.4,0,1.9c0.2,0.5,0.4,0.6,0.9,0.4C6,7.6,6.3,7,6.8,6.7
					S7.6,6.3,8,5.8c0.5-0.7,0.7-2.1,0.5-3C8.2,2.1,7.6,1.2,6.7,1.4C5.9,1.5,5.8,2.6,5.5,3.2C5.1,4.4,4.9,5.8,4.9,7
					c0,0.3,0.3,0.5,0.6,0.3c1.2-0.7,2.1-1.6,2.5-3C8.4,3,8.4,2.2,6.9,1.6c-0.1,0-0.3,0-0.4,0.1c-0.9,1-1.1,3.1-1.3,4.3
					c0,0.4,0.4,0.4,0.6,0.3c0.7-0.6,1.4-1.2,1.7-2.1c0.1-0.6,0.3-1.8-0.4-2c0-0.1-0.2-0.1-0.3,0C6,2.8,5.9,4.1,5.7,5
					C5.6,5.3,5.9,5.6,6.2,5.3c0.6-0.6,0.9-1.7,1.5-2.5c-0.2,0-0.4,0.1-0.6,0.1V3c0,0.5,0.6,0.5,0.7,0c0-0.3,0-0.4-0.2-0.6
					c-0.2-0.1-0.6,0-0.6,0.2C6.6,3.2,6.3,4.2,5.8,4.9C5.9,5,6.1,5.1,6.3,5.1c0.2-0.6,0.3-1.4,0.6-1.9c0,0.2,0,0.3,0,0.5
					C6.7,4.1,6.5,4.6,6.3,5C6.1,5.3,5.7,5.6,5.4,5.8C5.6,5.9,5.8,6,5.9,6.1C6,5.1,6.2,4.3,6.5,3.5C6.6,3.2,6.7,2.8,7,2.7
					c0.6-0.2,0.6,0.4,0.6,0.6C7.4,4.8,6.2,6,5.1,6.7C5.3,6.8,5.5,6.9,5.7,7c0-1.4,0.3-2.6,0.7-3.9c0.1-0.2,0.1-0.6,0.2-0.7
					c0.4-0.5,0.7-0.1,1,0.4c0.6,1,0,2.5-0.8,3.1C6.5,6.2,5.9,6.7,5.6,6.8C5.3,6.9,5.5,7.1,5.3,6.7C5.2,6.3,5.4,5.6,5.5,5.2
					c0.2-1,0.5-1.9-0.2-2.7c-1-1.3-2.6-2.3-3.9-0.8c-1.6,1.8-0.3,3.6,1.1,4.9c0.3,0.3,0.6,0,0.6-0.4L2.8,5.7
					C2.6,5.8,2.4,5.9,2.2,5.9c0.9,0.9,1.7,2.6,3.1,2.5c1.8-0.1,2.5-1.9,3.1-3.2C8.4,5.1,8.2,4.9,8,4.8C7.7,5.3,7.4,5.6,7.1,6.2
					C7,6.4,6.3,7,7,7c0.4,0,0.9-0.8,1.1-1.2c0.7-1.1,0.9-2,0.6-3.3C8.4,1.6,8.2,0.7,7.1,0.8C5.9,0.9,6,1.9,5.2,2.6
					c0.2,0,0.4,0.1,0.6,0.1C5.2,1.5,3.8,0.7,2.6,1c-0.4,0.1-0.4,0.6,0,0.6c0.3,0.2,0.6,0.3,0.8,0.3C3.9,1.9,4.1,1.3,3.6,1.3L3.6,1.3
					z"/>
			</g>
		</g>
		<g>
			<g>
				<path class="st0" d="M5.5,3.3C4.7,2.6,3.9,1.7,2.7,1.8C1.8,1.9,1.2,2.5,1.1,3.4C1,4.2,1.1,5.2,1.8,5.9C2.1,6.2,3,6.8,3.4,6.3
					C3.2,6.3,3,6.3,2.8,6.3c0.4,0.6,0.9,1,1.5,1.5c0.2,0.2,0.6,0.1,0.6-0.3c0-0.6,0-1.2-0.1-1.8c0-0.6,0.3-1.2,0.6-1.8
					C5.2,3.9,4.9,3.8,4.7,3.7C4.4,4.9,4.2,6,3.7,7.1c0.2,0,0.5,0.1,0.6,0.1C4.3,5.9,4.5,4.9,5.2,3.8C5.4,3.5,4.9,3,4.7,3.3
					C4.2,3.8,3.9,4.2,3.7,4.9c0,0.2,0,0.7-0.2,0.8C3.3,6,2.4,5.1,2.2,4.9C2.1,4.5,1.5,4.8,1.7,5.2C2.1,5.9,3,6.5,3.8,6.5
					c0.1,0,0.3-0.1,0.3-0.2c0.1-0.3,0.2-0.6,0.2-0.8c0.2-0.6,0.4-1.1,0.8-1.7C5,3.7,4.8,3.6,4.7,3.4C3.8,4.6,3.5,5.7,3.7,7.2
					c0,0.4,0.6,0.5,0.6,0.1c0.5-1.1,0.7-2.2,1-3.4c0.1-0.4-0.5-0.6-0.6-0.3C4.5,4,4.2,4.5,4.1,5.1C4,5.8,4.2,6.7,4.2,7.6
					c0.2-0.1,0.5-0.2,0.6-0.3c-0.5-0.4-1-0.8-1.4-1.4c-0.1-0.2-0.4-0.2-0.6,0C2.8,5.7,2.6,5.5,2.4,5.5C2.1,5.1,1.9,4.8,1.9,4.3
					c-0.1-0.6-0.1-1,0.4-1.5c1-1,2.1,0.4,2.9,1C5.5,4.1,5.9,3.6,5.5,3.3L5.5,3.3z"/>
			</g>
		</g>
		<g>
			<g>
				<path class="st0" d="M4.2,5.8c-0.9,0.1-1.5-0.5-2-1.1C1.9,4.3,1.4,4.8,1.7,5.1C2.3,6,3.1,6.5,4.2,6.4C4.7,6.4,4.7,5.7,4.2,5.8
					L4.2,5.8z"/>
			</g>
		</g>
		<g>
			<g>
				<path class="st0" d="M2.2,4.7C2,4.5,1.9,4.2,1.7,3.9c-0.2-0.4-0.8,0-0.6,0.4c0.1,0.3,0.3,0.6,0.6,0.8C2,5.5,2.4,5.1,2.2,4.7
					L2.2,4.7z"/>
			</g>
		</g>
	</g>
	<g id="Capa_1_1_">
		<g>
			<g>
				<path d="M5.4,9.3c0.5,0,0.5-0.7,0-0.7C4.9,8.7,4.9,9.3,5.4,9.3L5.4,9.3z"/>
			</g>
		</g>
		<g>
			<g>
				<path d="M1,5.4c0.5,0,0.5-0.7,0-0.7C0.6,4.8,0.6,5.4,1,5.4L1,5.4z"/>
			</g>
		</g>
		<g>
			<g>
				<path d="M0.8,5.3c0.7,1.1,1.8,1.9,2.8,2.8c0.6,0.6,1.3,1.2,2.1,1.1C7.4,9,8.7,6.3,9.2,5.1c0.6-1.6,0.2-3.8-1.4-4.6
					c-1.6-1-2.1,0.6-2.6,2c0.2,0,0.5-0.1,0.6-0.1C5.3,1.5,4.9,0.9,3.9,0.5C3.1,0.2,2.2,0.2,1.5,0.8C0.3,1.8,0,4,0.9,5.2
					c0.3,0.4,0.7-0.1,0.5-0.5c-0.7-0.9-0.2-3.3,1-3.7s2.2,0.8,2.8,1.7c0.2,0.2,0.6,0.2,0.6-0.1C6.1,1.8,6.2,0.5,7.5,1
					c0.6,0.2,0.7,0.8,0.9,1.4C9,3.8,8.6,4.8,8,6.1c-0.3,0.5-0.6,1-1,1.5C5.8,8.6,5,8.4,4.1,7.6C3.1,6.8,2.2,6,1.3,5
					C1.1,4.6,0.5,5,0.8,5.3L0.8,5.3z"/>
			</g>
		</g>
	</g>
</g>
<g id="Capa_2">
</g>
</svg>
