<svg xmlns="http://www.w3.org/2000/svg" viewBox="0 0 10 10"><defs><style>.cls-1{fill:#0d7f2a;}.cls-2{fill:red;}</style></defs><title>Mesa de trabajo 1</title><g id="Capa_2" data-name="Capa 2"><path class="cls-1" d="M5.58,4.79C6,6.14,5.43,6.45,4.1,6.62A18.76,18.76,0,0,1,0,6.5L1.45,8.4c.25-.87.52-1.73.8-2.59C2.85,4,0,3.18-.64,5c-.28.86-.56,1.72-.81,2.59A1.52,1.52,0,0,0,0,9.5a14.3,14.3,0,0,0,6-.26C8.39,8.42,9.18,6.3,8.47,4,7.91,2.15,5,2.94,5.58,4.79Z"/><path class="cls-1" d="M4.59,6.49A1.19,1.19,0,0,0,6,5.65a.38.38,0,0,0-.13-.51A3.05,3.05,0,0,0,3.2,4.61c-.85.3-.84.94-.87,1.72A.38.38,0,0,0,3,6.6a4.18,4.18,0,0,1,.85-.83c.39-.28,0-.93-.38-.65-.65.45-1.25.94-1.85,1.45L2.17,7c.28-.55.58-1.07.91-1.59l-.65-.38c-.17.32-.34.63-.49,1a.38.38,0,0,0,.22.55,1.63,1.63,0,0,0,1.15-.42l-.46-.59a5.66,5.66,0,0,0-.74,1.23c-.16.37.26.77.59.45C3.33,6.62,4,6,4.61,5.45l-.53-.53A11.29,11.29,0,0,0,2.93,6.51l.65.38A16.6,16.6,0,0,1,4.68,5C5,4.56,4.31,4.2,4,4.59a20.62,20.62,0,0,0-1.3,2c-.16.3.2.74.52.51A10.12,10.12,0,0,0,5.25,5l-.59-.45a10.24,10.24,0,0,0-1.05,2c-.17.43.45.59.68.29a14.15,14.15,0,0,0,1.1-1.67c.2-.35-.31-.8-.59-.45a6.07,6.07,0,0,0-1,1.88A.37.37,0,0,0,4.38,7a10,10,0,0,0,1-1.47l-.64-.38L4.29,6.19a.38.38,0,0,0,.65.38,6.49,6.49,0,0,0,.95-2.11c.12-.39-.52-.68-.69-.29L4.41,6l.68.29.63-2.43c.07-.26-.18-.57-.46-.46A4.72,4.72,0,0,0,3.45,5.17l.63.37a8,8,0,0,1,.83-1.65.38.38,0,0,0-.43-.55.75.75,0,0,0-.43.18c-.38.28,0,.93.38.65l.25-.11-.42-.55a8.64,8.64,0,0,0-.9,1.83c-.09.33.38.67.62.36.39-.5.87-1.31,1.48-1.55L5,3.69,4.37,6.12c-.1.39.51.69.69.28l.79-1.85-.68-.29a5.84,5.84,0,0,1-.88,1.93l.65.38.47-1.08c.19-.43-.39-.8-.64-.38a10,10,0,0,1-.92,1.32l.63.37a5.1,5.1,0,0,1,.85-1.55l-.59-.46a12.34,12.34,0,0,1-1.1,1.67l.69.29a10.2,10.2,0,0,1,1-1.81c.22-.35-.33-.8-.59-.46a9.07,9.07,0,0,1-1.85,2L3.38,7a22.09,22.09,0,0,1,1.3-2L4,4.59a17.33,17.33,0,0,0-1.1,1.92c-.21.43.41.8.65.38a9.68,9.68,0,0,1,1-1.44.38.38,0,0,0-.53-.53C3.43,5.5,2.8,6.09,2.17,6.69l.59.45a5,5,0,0,1,.62-1.07c.24-.3-.07-.85-.45-.59-.06,0-.47.37-.57.35l.23.55c.15-.32.32-.64.49-1a.38.38,0,0,0-.65-.38,17.94,17.94,0,0,0-.9,1.59.38.38,0,0,0,.59.46c.55-.47,1.11-.92,1.7-1.33l-.38-.65a5,5,0,0,0-1,1l.64.26c0-.66.31-1.16,1.06-1.07a3.14,3.14,0,0,1,1.3.53l-.13-.52c-.23.47-.18.47-.72.47a.38.38,0,0,0,0,.75Z"/><path class="cls-1" d="M3.44,3.65,2.34,5.08,3,5.37l.62-1.76a.38.38,0,0,0-.55-.42A5,5,0,0,0,2,4.7l.7.19a8.11,8.11,0,0,1,.66-2.06c.15-.4-.48-.65-.69-.29A24.33,24.33,0,0,0,1.45,5.08l.74.1a9.57,9.57,0,0,1,.72-2.9c.14-.44-.44-.61-.68-.29A10.12,10.12,0,0,0,1.44,3.3l.65.37A8.08,8.08,0,0,1,2.83,2.4L2.18,2A13.33,13.33,0,0,0,1.11,4.24c-.17.45.56.65.72.2a12.85,12.85,0,0,1,1-2C3.08,2,2.46,1.64,2.18,2A7.75,7.75,0,0,0,1.44,3.3c-.19.43.42.81.65.37a9.59,9.59,0,0,1,.79-1.3l-.69-.29a9.9,9.9,0,0,0-.75,3.1.38.38,0,0,0,.74.1,21,21,0,0,1,1.1-2.36l-.69-.29a8.66,8.66,0,0,0-.68,2.26c0,.39.51.48.7.19a4.82,4.82,0,0,1,.87-1.25l-.55-.42L2.31,5.17c-.16.44.45.6.68.29L4.08,4c.3-.38-.36-.75-.64-.37Z"/><path class="cls-1" d="M-.2,3.34-.28,4.46H.47a16.53,16.53,0,0,1,.29-3c.07-.33-.13-.25.19-.41A3.49,3.49,0,0,1,2.12,1c2-.07,4.77-.49,5.2,2.12L8,2.79A5.47,5.47,0,0,1,6.78,1C6.61.64,6,.92,6.1,1.32l.59,1.73.68-.28A7.32,7.32,0,0,1,6.76.88C6.66.4,6,.61,6,1.08l.31,2.2L7,2.92a2.87,2.87,0,0,1-.6-1.4l-.73.2.46,2,.72-.2a10.26,10.26,0,0,1-.43-3,.38.38,0,0,0-.75,0,20.65,20.65,0,0,0,0,2.36l.64-.27C6,2.35,6,1.64,6,1.28a.38.38,0,0,0-.75,0c0,.79,0,1.58.09,2.38l.73-.1A8.6,8.6,0,0,1,5.67,1a.38.38,0,0,0-.75,0,21,21,0,0,0,0,2.1l.38-.38H5.23A.36.36,0,0,0,4.87,3,10.28,10.28,0,0,0,4.62,5.1h.75a15.56,15.56,0,0,1,0-2.73c0-.39-.52-.48-.7-.19s-.7,1.26-1,1.39L4.1,4A5.73,5.73,0,0,1,5.5,1.48C5.74,1.17,5.42.62,5,.89A8.19,8.19,0,0,0,3.47,2.32l.59.46A13.72,13.72,0,0,0,5,1.24c.2-.36-.3-.79-.59-.46a10.87,10.87,0,0,0-1.72,3c-.18.44.46.82.65.38A22.18,22.18,0,0,1,5.15.84.38.38,0,0,0,4.64.32,6,6,0,0,0,2.77,2.69L3.46,3A10,10,0,0,1,4,1.42C4.19,1,3.62.61,3.36,1s-.66,1.1-1,1.67L3.09,3a9.39,9.39,0,0,1,.59-1.38c.18-.37-.28-.79-.59-.46A9.71,9.71,0,0,0,1.84,2.9l.68.29A15.9,15.9,0,0,1,3.37.7L2.69.41c-.29.68-.75,1.21-1.07,1.86-.13.26-.23,1.07-.46,1.08S1.17,2,1.18,2s-.09-.5-.36-.47L.27,1.43V2c.74-.78,2.49-.74,3.4-.62L3.57.6c-.73.17-2.2.17-2.75.79S.74,2.83.46,3.47a.38.38,0,0,0,.59.45c.66-.61.59-1.36,1-2.11a.38.38,0,0,0-.65-.38c-.36.6-.39,1.48-.92,2l.59.46c.23-.53.09-1.07.28-1.56.32-.86,1.62-.79,2.38-1,.45-.11.28-.69-.1-.74C2.4.42.68.45-.26,1.43A.38.38,0,0,0-.26,2c.31.36.6.33,1.08.29L.46,1.77c-.1.61-.8,2.95.67,2.61.57-.13.81-.88,1-1.35.36-.85.91-1.56,1.27-2.42C3.57.22,2.9-.07,2.73.32A15.63,15.63,0,0,0,1.8,3a.38.38,0,0,0,.69.29A7.93,7.93,0,0,1,3.62,1.69L3,1.24A16.64,16.64,0,0,0,2.36,2.8c-.15.4.49.66.69.29.3-.57.62-1.13,1-1.67L3.36,1a11.6,11.6,0,0,0-.62,1.74.37.37,0,0,0,.68.29A5.36,5.36,0,0,1,5,1L4.5.46A22.69,22.69,0,0,0,2.72,3.75l.65.38A10.23,10.23,0,0,1,5,1.31L4.38.86a15.24,15.24,0,0,1-1,1.54c-.25.34.31.78.58.46A6.85,6.85,0,0,1,5.42,1.54L5,1a6.48,6.48,0,0,0-1.6,2.88c0,.25.17.58.47.46C4.55,4,4.93,3.16,5.32,2.56l-.7-.19a15.56,15.56,0,0,0,0,2.73.38.38,0,0,0,.75,0c0-.2.32-1.56,0-1.59a.36.36,0,0,0,.37-.37,21,21,0,0,1,0-2.1H4.92a8.86,8.86,0,0,0,.46,2.71c.13.38.77.36.74-.09C6.06,2.86,6,2.07,6,1.28H5.28a3,3,0,0,0,.43,1.9.37.37,0,0,0,.64-.26,20.65,20.65,0,0,1,0-2.36H5.64A11.3,11.3,0,0,0,6.1,3.73a.37.37,0,0,0,.72-.2l-.45-2c-.11-.47-.83-.27-.73.2a3.67,3.67,0,0,0,.8,1.73c.27.32.67,0,.62-.37L6.76.88,6,1.08a8.35,8.35,0,0,0,.7,2.06.37.37,0,0,0,.68-.29L6.82,1.12l-.68.29A5.73,5.73,0,0,0,7.42,3.32.38.38,0,0,0,8.05,3,2.85,2.85,0,0,0,5.34.27a16.48,16.48,0,0,0-3,0A7.22,7.22,0,0,0,.13.43.38.38,0,0,0-.14.79,12.61,12.61,0,0,1-.09,2.63c-.08.62-.17,1.2-.19,1.83s.72.48.75,0L.55,3.34c0-.48-.72-.48-.75,0Z"/></g><g id="Capa_1" data-name="Capa 1"><path d="M-.12.57a33.25,33.25,0,0,1,5,0C7.1.83,8,2.58,8.05,4.8S7.61,9.07,5.16,9.43A26.19,26.19,0,0,1-.15,9.35c-.48,0-.48.72,0,.75,1.53.1,3.06.14,4.6.1a4.52,4.52,0,0,0,2.28-.35c2-1.25,2.11-2.94,2.07-5C8.75,3,8.43,1.29,6.71.17A3.6,3.6,0,0,0,4.87-.19c-1.66-.11-3.33,0-5,0-.48,0-.48.77,0,.75Z"/><path d="M3.63,7.64a.38.38,0,0,0,0-.75.38.38,0,0,0,0,.75Z"/><path class="cls-2" d="M8.78,5.63a5.61,5.61,0,0,0,.71,0c.47-.05.48-.8,0-.75a5.61,5.61,0,0,1-.71,0c-.48,0-.48.73,0,.75Z"/><path class="cls-2" d="M9.62,5.28a.38.38,0,0,0,0-.75.38.38,0,0,0,0,.75Z"/><path class="cls-2" d="M9.64,5.89a.38.38,0,0,0,0-.75.38.38,0,0,0,0,.75Z"/><path class="cls-1" d="M3.94,3.08a.38.38,0,0,0,0-.75.38.38,0,0,0,0,.75Z"/><path class="cls-1" d="M3.94,3.08a.38.38,0,0,0,0-.75.38.38,0,0,0,0,.75Z"/><path class="cls-1" d="M3.94,3.08a.38.38,0,0,0,0-.75.38.38,0,0,0,0,.75Z"/><path class="cls-1" d="M3.79,2.5a.38.38,0,0,0,0-.75.38.38,0,0,0,0,.75Z"/><path d="M4.21,2.63a.38.38,0,0,0,0-.75.38.38,0,0,0,0,.75Z"/></g></svg>