<?xml version="1.0" encoding="utf-8"?>
<!-- Generator: Adobe Illustrator 22.0.1, SVG Export Plug-In . SVG Version: 6.00 Build 0)  -->
<svg version="1.1" xmlns="http://www.w3.org/2000/svg" xmlns:xlink="http://www.w3.org/1999/xlink" x="0px" y="0px"
	 viewBox="0 0 10 10" style="enable-background:new 0 0 10 10;" xml:space="preserve">
<style type="text/css">
	.st0{fill:#0D7F2A;}
	.st1{fill:#FF0000;}
</style>
<g id="Capa_2">
	<g>
		<g>
			<path class="st0" d="M5,5.2C4.5,3.8,5.1,3.4,6.5,3.2c1.4-0.2,2.9-0.1,4.3,0c-0.5-0.6-1-1.3-1.4-1.9C9.1,2.3,8.8,3.1,8.5,4
				C8,5.9,10.9,6.7,11.4,4.8c0.3-0.9,0.5-1.8,0.8-2.6c0.3-1-0.5-1.8-1.4-1.9c-2-0.2-4.3-0.3-6.2,0.4C2.2,1.5,1.3,3.6,2.1,6
				C2.7,7.8,5.6,7,5,5.2L5,5.2z"/>
		</g>
	</g>
	<g>
		<g>
			<path class="st0" d="M6.1,3.4C5.3,3.4,5,3.6,4.7,4.3C4.6,4.4,4.6,4.7,4.8,4.8c0.8,0.5,1.8,0.8,2.7,0.5C8.4,5,8.4,4.3,8.4,3.5
				C8.4,3.2,8,3,7.7,3.3C7.5,3.6,7.2,3.9,6.9,4.1C6.5,4.4,6.9,5,7.3,4.8c0.7-0.5,1.3-1,1.9-1.5C9,3.1,8.8,3,8.6,2.8
				C8.3,3.4,8,3.9,7.7,4.4c0.2,0.1,0.4,0.3,0.6,0.4c0.2-0.3,0.3-0.6,0.5-1c0.1-0.2,0-0.5-0.2-0.6C8.1,3.2,7.8,3.5,7.4,3.7
				c0.2,0.2,0.3,0.3,0.5,0.5c0.3-0.4,0.5-0.8,0.7-1.2C8.8,2.7,8.3,2.3,8,2.6C7.4,3.2,6.7,3.9,6.1,4.4C6.2,4.6,6.4,4.8,6.6,5
				c0.4-0.5,0.8-1,1.2-1.6C7.5,3.2,7.3,3.1,7.1,3C6.8,3.6,6.4,4.3,6,4.9C5.7,5.3,6.4,5.7,6.7,5.3C7.1,4.7,7.6,4,8,3.3
				C8.1,3,7.8,2.5,7.4,2.8C6.6,3.4,6,4.2,5.4,5C5.6,5.1,5.8,5.2,6,5.4c0.4-0.7,0.8-1.3,1.1-2C7.2,2.9,6.6,2.7,6.4,3
				C6,3.6,5.6,4.1,5.3,4.7C5.1,5.1,5.6,5.5,5.9,5.2c0.5-0.6,0.8-1.2,1-1.9C7,2.9,6.5,2.6,6.3,2.9c-0.4,0.5-0.7,1-1,1.5
				c0.2,0.1,0.4,0.3,0.6,0.4C6,4.4,6.2,4.1,6.4,3.7C6.5,3.3,6,2.9,5.7,3.3C5.2,4,5,4.7,4.8,5.5C4.6,5.9,5.3,6.1,5.5,5.7
				C5.7,5,6,4.4,6.3,3.8C6,3.7,5.8,3.6,5.5,3.6C5.3,4.4,5.1,5.2,4.9,6C4.9,6.3,5.1,6.6,5.4,6.5c0.9-0.3,1.4-1.2,1.9-1.9
				C7.1,4.5,6.8,4.4,6.6,4.3C6.5,4.9,6.1,5.5,5.8,6C5.6,6.3,5.9,6.6,6.2,6.6c0.2,0,0.3-0.1,0.4-0.2c0.4-0.3,0-0.9-0.4-0.6
				C6.2,5.8,6.1,5.8,6,5.9C6.2,6,6.3,6.2,6.4,6.4c0.3-0.6,0.7-1.2,0.9-1.9c0.1-0.4-0.4-0.6-0.7-0.3C6.3,4.8,5.8,5.5,5.2,5.8
				c0.2,0.2,0.3,0.3,0.5,0.5c0.2-0.8,0.4-1.6,0.6-2.5c0.1-0.5-0.5-0.6-0.7-0.2C5.3,4.2,5,4.8,4.8,5.5C5,5.5,5.2,5.6,5.5,5.7
				c0.2-0.7,0.4-1.4,0.9-2C6.1,3.6,5.9,3.4,5.7,3.3C5.5,3.7,5.4,4.1,5.2,4.4C5,4.9,5.6,5.2,5.9,4.8c0.3-0.5,0.6-0.9,0.9-1.4
				C6.6,3.3,6.4,3.2,6.2,3.1C6,3.7,5.7,4.2,5.3,4.7C5.5,4.8,5.7,5,5.9,5.1C6.2,4.5,6.6,4,7,3.4C6.8,3.3,6.6,3.2,6.3,3.1
				C6.1,3.8,5.7,4.4,5.4,5C5.1,5.4,5.7,5.7,6,5.4c0.5-0.7,1.1-1.4,1.8-1.9C7.7,3.2,7.5,3.1,7.3,2.9C6.9,3.6,6.5,4.3,6,4.9
				c0.2,0.1,0.4,0.3,0.6,0.4c0.4-0.6,0.8-1.3,1.1-2C8,2.9,7.3,2.5,7.1,3c-0.3,0.5-0.7,1-1,1.5C5.8,4.8,6.2,5.3,6.6,5
				c0.7-0.6,1.3-1.2,1.9-1.8C8.3,3,8.2,2.8,8,2.7C7.8,3.1,7.6,3.5,7.3,3.9C7,4.2,7.5,4.6,7.8,4.4C7.8,4.3,8.3,4,8.4,4
				C8.3,3.8,8.2,3.6,8.2,3.5C8,3.8,7.8,4.1,7.7,4.4C7.4,4.9,8,5.2,8.3,4.8c0.3-0.5,0.6-1.1,0.9-1.6C9.4,2.8,9,2.5,8.6,2.7
				c-0.6,0.5-1.1,1-1.7,1.4C7,4.3,7.1,4.5,7.3,4.8c0.4-0.3,0.7-0.6,1-1C8.1,3.7,7.9,3.6,7.6,3.5c0,0.7-0.3,1.2-1.1,1.1
				C6,4.6,5.6,4.4,5.2,4.1c0,0.2,0.1,0.3,0.1,0.5c0.2-0.5,0.2-0.5,0.7-0.5C6.5,4.1,6.5,3.4,6.1,3.4L6.1,3.4z"/>
		</g>
	</g>
	<g>
		<g>
			<path class="st0" d="M7.3,6.3c0.4-0.5,0.7-1,1.1-1.5C8.2,4.7,7.9,4.6,7.7,4.5C7.5,5.1,7.3,5.7,7.1,6.3C7,6.6,7.4,6.9,7.6,6.7
				c0.5-0.3,0.8-1,1.2-1.6C8.6,5.1,8.3,5,8.1,5c0,0.7-0.4,1.5-0.6,2.1C7.3,7.5,7.9,7.7,8.1,7.4C8.6,6.5,9,5.7,9.3,4.8
				c-0.2,0-0.5-0.1-0.7-0.1c0.1,1-0.4,2.1-0.7,3C7.8,8.1,8.3,8.2,8.6,7.9C8.9,7.5,9.1,7,9.4,6.6C9.1,6.5,8.9,6.3,8.7,6.2
				C8.5,6.7,8.3,7.1,8,7.5c0.2,0.1,0.4,0.3,0.6,0.4C9,7.2,9.4,6.4,9.7,5.6C9.9,5.2,9.1,5,9,5.4C8.7,6.1,8.4,6.8,8,7.5
				C7.7,7.9,8.3,8.3,8.6,7.9C8.9,7.5,9.2,7,9.4,6.6c0.2-0.4-0.4-0.8-0.6-0.4C8.5,6.7,8.2,7.1,7.9,7.5c0.2,0.1,0.5,0.2,0.7,0.3
				c0.3-1,0.8-2.1,0.7-3.2c0-0.4-0.6-0.5-0.7-0.1C8.3,5.4,7.9,6.2,7.5,7C7.7,7.1,8,7.2,8.2,7.3C8.4,6.6,8.8,5.7,8.8,5
				c0-0.4-0.5-0.5-0.7-0.2c-0.2,0.4-0.5,1-0.9,1.3c0.2,0.1,0.4,0.3,0.6,0.4C8,5.9,8.2,5.3,8.4,4.7C8.6,4.3,8,4.1,7.7,4.4
				C7.4,4.9,7,5.4,6.6,5.9C6.3,6.3,7,6.6,7.3,6.3L7.3,6.3z"/>
		</g>
	</g>
	<g>
		<g>
			<path class="st0" d="M11.1,6.5c0-0.4,0-0.8,0.1-1.1c-0.2,0-0.5,0-0.8,0c0,0.9,0,2.2-0.2,3C10,8.7,10.3,8.7,9.9,8.8
				C9.6,9,9.1,8.9,8.7,8.9C6.7,9,3.8,9.5,3.3,6.8C3.1,7,2.9,7.1,2.6,7.2C3.2,7.7,3.6,8.3,3.9,9c0.2,0.4,0.8,0.1,0.7-0.3
				C4.4,8.1,4.1,7.5,3.9,6.9C3.7,7,3.5,7.1,3.2,7.2c0.3,0.7,0.5,1.2,0.7,1.9C4,9.6,4.7,9.4,4.6,8.9C4.5,8.2,4.4,7.4,4.3,6.7
				C4.1,6.8,3.9,6.9,3.7,7.1C4,7.5,4.2,7.9,4.3,8.5C4.6,8.4,4.8,8.3,5,8.3c-0.2-0.7-0.3-1.4-0.5-2C4.3,6.3,4,6.4,3.8,6.4
				c0.3,1,0.5,2,0.5,3c0,0.5,0.7,0.5,0.8,0c0-0.8,0-1.6,0-2.4C4.8,7.1,4.6,7.2,4.4,7.3c0.3,0.3,0.2,1,0.3,1.4c0,0.5,0.8,0.5,0.8,0
				c0-0.8-0.1-1.6-0.1-2.4C5,6.3,4.8,6.4,4.6,6.4C4.9,7.2,5,8,5,8.9c0,0.5,0.7,0.5,0.8,0c0-0.7,0-1.4-0.1-2.1
				C5.6,6.9,5.5,7.1,5.3,7.2c0,0,0.1,0,0.1,0c0.2,0,0.3-0.1,0.4-0.3C6,6.3,6,5.5,6,4.8c-0.2,0-0.5,0-0.8,0c0.1,0.9,0.1,1.8,0.1,2.8
				C5.3,8,5.8,8.1,6,7.8c0.2-0.3,0.7-1.3,1.1-1.4C6.9,6.2,6.8,6,6.6,5.9c-0.2,1-0.8,1.8-1.4,2.6C5,8.8,5.3,9.3,5.7,9.1
				c0.6-0.4,1.1-0.9,1.6-1.5C7.1,7.4,6.9,7.3,6.7,7.1c-0.4,0.5-0.7,1-1,1.6C5.5,9.1,6,9.5,6.3,9.2c0.8-0.9,1.3-2,1.8-3.1
				c0.2-0.4-0.5-0.7-0.7-0.3C6.9,6.9,6.3,8.1,5.6,9.1C5.4,9.4,5.8,9.8,6.1,9.6C7,9.1,7.5,8.1,8,7.2C7.8,7.1,7.5,7,7.3,6.9
				C7.2,7.5,7,8,6.7,8.6C6.6,9,7.2,9.3,7.4,8.9c0.3-0.6,0.7-1.1,1-1.7C8.1,7.1,7.9,7,7.7,6.9c-0.2,0.5-0.4,1-0.6,1.4
				C6.9,8.7,7.4,9.1,7.7,8.8C8.2,8.2,8.6,7.6,9,7C8.7,6.9,8.5,6.8,8.3,6.7C8.1,7.6,7.8,8.4,7.4,9.2c0.2,0.1,0.5,0.2,0.7,0.3
				c0.3-0.7,0.7-1.2,1-1.8c0.1-0.3,0.3-1.2,0.5-1.2c0.3,0,0,1.3,0,1.4c0,0.2,0.1,0.5,0.4,0.5c0.2,0,0.4,0,0.6,0.1c0-0.2,0-0.4,0-0.5
				C9.9,8.7,8.1,8.7,7.1,8.6c0,0.2,0.1,0.5,0.1,0.7C8,9.2,9.5,9.1,10,8.5C10.5,8,10.1,7,10.4,6.4c0.2-0.4-0.3-0.8-0.6-0.5
				c-0.7,0.6-0.6,1.4-1,2.2C8.5,8.5,9.1,8.9,9.4,8.5c0.4-0.6,0.4-1.5,0.9-2C10.1,6.3,9.9,6.2,9.7,6C9.5,6.6,9.6,7.1,9.5,7.6
				C9.1,8.5,7.8,8.4,7,8.6C6.6,8.7,6.7,9.3,7.1,9.4c1.3,0.1,3.1,0.1,4.1-0.9c0.1-0.2,0.1-0.4,0-0.5c-0.3-0.4-0.6-0.3-1.1-0.3
				c0.1,0.2,0.2,0.3,0.4,0.5c0.1-0.6,0.8-3-0.7-2.6c-0.6,0.1-0.8,0.9-1,1.4C8.3,7.7,7.8,8.5,7.4,9.3C7.2,9.7,7.9,10,8.1,9.6
				C8.5,8.7,8.8,7.8,9,6.9c0.1-0.4-0.5-0.7-0.7-0.3C8,7.2,7.6,7.7,7.2,8.2c0.2,0.2,0.4,0.3,0.6,0.5c0.2-0.5,0.5-1,0.7-1.6
				c0.1-0.4-0.5-0.7-0.7-0.3C7.4,7.4,7.1,8,6.8,8.5C7,8.6,7.2,8.7,7.4,8.8C7.7,8.2,7.9,7.7,8,7.1c0.1-0.4-0.5-0.7-0.7-0.3
				C6.9,7.6,6.5,8.5,5.7,9c0.2,0.2,0.3,0.3,0.5,0.5C6.9,8.4,7.5,7.3,8,6.1C7.8,6,7.6,5.9,7.3,5.9c-0.4,1-0.9,2-1.6,2.8
				C6,8.8,6.2,9,6.4,9.1C6.6,8.6,7,8,7.3,7.5C7.6,7.2,7,6.7,6.7,7.1C6.3,7.6,5.9,8,5.3,8.4C5.4,8.6,5.6,8.8,5.7,9
				c0.7-0.9,1.4-1.8,1.6-3c0-0.2-0.2-0.6-0.5-0.5C6.2,5.9,5.8,6.8,5.4,7.4c0.2,0.1,0.5,0.1,0.7,0.2c0.1-0.9,0-1.8-0.1-2.8
				C6,4.3,5.3,4.3,5.3,4.8c0,0.1-0.3,1.6,0,1.6C5.1,6.4,4.9,6.6,5,6.8C5,7.5,5.1,8.2,5,8.9c0.2,0,0.5,0,0.8,0C5.7,8,5.6,7.1,5.3,6.2
				C5.1,5.8,4.5,5.8,4.5,6.3c0.1,0.8,0.1,1.6,0.1,2.4c0.2,0,0.5,0,0.8,0c0-0.6,0-1.4-0.5-1.9C4.7,6.5,4.3,6.7,4.3,7
				c0,0.8,0,1.6,0,2.4c0.2,0,0.5,0,0.8,0C5,8.3,4.9,7.3,4.5,6.2C4.4,5.8,3.7,6,3.8,6.4c0.2,0.7,0.3,1.4,0.5,2C4.4,8.9,5.2,8.7,5,8.3
				C4.9,7.6,4.7,7.1,4.2,6.5c-0.3-0.3-0.7,0-0.6,0.4c0.1,0.7,0.2,1.5,0.4,2.2C4.2,9,4.4,9,4.6,8.9C4.5,8.2,4.2,7.5,3.9,6.8
				C3.7,6.5,3.1,6.7,3.2,7.1c0.2,0.6,0.4,1.2,0.6,1.7c0.2-0.1,0.5-0.2,0.7-0.3C4.2,7.8,3.8,7.2,3.2,6.7C2.9,6.4,2.5,6.7,2.5,7
				c0.3,1.7,1.1,2.4,2.8,2.7c1,0.1,2.1,0,3.1,0c0.7,0,1.6,0.1,2.3-0.2c0.2-0.1,0.3-0.2,0.3-0.4c0-0.7-0.2-1.2-0.1-1.9
				c0.1-0.6,0.2-1.2,0.2-1.9c0-0.5-0.7-0.5-0.8,0c0,0.4,0,0.8-0.1,1.1C10.3,7,11,7,11.1,6.5L11.1,6.5z"/>
		</g>
	</g>
</g>
<g id="Capa_1">
	<g>
		<g>
			<path d="M11,9.3C9.4,9.4,7.6,9.6,5.9,9.4C3.6,9.2,2.6,7.5,2.5,5.2C2.4,3,2.9,0.8,5.4,0.4c1.8-0.3,3.7-0.1,5.5,0
				c0.5,0,0.5-0.7,0-0.8c-1.6-0.1-3.2-0.1-4.8,0c-0.8,0-1.7,0-2.3,0.4C1.7,1.3,1.6,3,1.7,5.2C1.8,7.1,2.2,8.7,4,9.8
				c0.6,0.4,1.3,0.3,1.9,0.3c1.7,0.1,3.5,0,5.2-0.1C11.5,10,11.5,9.3,11,9.3L11,9.3z"/>
		</g>
	</g>
	<g>
		<g>
			<path d="M7,3c0.5,0,0.5-0.8,0-0.8C6.6,2.2,6.6,3,7,3L7,3z"/>
		</g>
	</g>
	<g>
		<g>
			<path class="st1" d="M1.7,4.3c-0.2,0-0.5,0-0.7,0C0.5,4.4,0.5,5.2,1,5.1c0.2,0,0.5,0,0.7,0C2.2,5.1,2.2,4.4,1.7,4.3L1.7,4.3z"/>
		</g>
	</g>
	<g>
		<g>
			<path class="st1" d="M0.9,5.5c0.5,0,0.5-0.8,0-0.8C0.4,4.7,0.4,5.5,0.9,5.5L0.9,5.5z"/>
		</g>
	</g>
	<g>
		<g>
			<path class="st1" d="M0.8,4.8c0.5,0,0.5-0.8,0-0.8C0.4,4.1,0.4,4.8,0.8,4.8L0.8,4.8z"/>
		</g>
	</g>
	<g>
		<g>
			<path class="st0" d="M6.8,7.6c0.5,0,0.5-0.8,0-0.8C6.3,6.8,6.3,7.6,6.8,7.6L6.8,7.6z"/>
		</g>
	</g>
	<g>
		<g>
			<path class="st0" d="M6.8,7.6c0.5,0,0.5-0.8,0-0.8C6.3,6.8,6.3,7.6,6.8,7.6L6.8,7.6z"/>
		</g>
	</g>
	<g>
		<g>
			<path class="st0" d="M6.8,7.6c0.5,0,0.5-0.8,0-0.8C6.3,6.8,6.3,7.6,6.8,7.6L6.8,7.6z"/>
		</g>
	</g>
	<g>
		<g>
			<path class="st0" d="M7,8.2c0.5,0,0.5-0.7,0-0.7C6.5,7.4,6.5,8.2,7,8.2L7,8.2z"/>
		</g>
	</g>
	<g>
		<g>
			<path d="M6.5,8.1c0.5,0,0.5-0.8,0-0.8C6,7.3,6,8.1,6.5,8.1L6.5,8.1z"/>
		</g>
	</g>
</g>
</svg>
